<svg xmlns="http://www.w3.org/2000/svg" version="1.1" xmlns:xlink="http://www.w3.org/1999/xlink" xmlns:svgjs="http://svgjs.dev/svgjs" width="1000" height="1000" viewBox="0 0 1000 1000"><rect width="1000" height="1000" fill="#09041d"></rect><g transform="matrix(0.7,0,0,0.7,149.57575757575756,282.1265587044535)"><svg viewBox="0 0 396 247" data-background-color="#09041d" preserveAspectRatio="xMidYMid meet" height="623" width="1000" xmlns="http://www.w3.org/2000/svg" xmlns:xlink="http://www.w3.org/1999/xlink"><g id="tight-bounds" transform="matrix(1,0,0,1,0.2400000000000091,-0.09999999999999432)"><svg viewBox="0 0 395.52 247.2" height="247.2" width="395.52"><g><svg></svg></g><g><svg viewBox="0 0 395.52 247.2" height="247.2" width="395.52"><g transform="matrix(1,0,0,1,75.54432,100.58963907918783)"><svg viewBox="0 0 244.43135999999998 46.02072184162431" height="46.02072184162431" width="244.43135999999998"><g><svg viewBox="0 0 244.43135999999998 46.02072184162431" height="46.02072184162431" width="244.43135999999998"><g><svg viewBox="0 0 309.95818949182444 58.357894916334516" height="46.02072184162431" width="244.43135999999998"><g transform="matrix(1,0,0,1,65.52682949182446,1.0275268521207046)"><svg viewBox="0 0 244.43135999999996 56.30284121209311" height="56.30284121209311" width="244.43135999999996"><g><svg viewBox="0 0 244.43135999999996 56.30284121209311" height="56.30284121209311" width="244.43135999999996"><g><svg viewBox="0 0 244.43135999999996 30.367062198147813" height="30.367062198147813" width="244.43135999999996"><g transform="matrix(1,0,0,1,0,0)"><svg width="244.43135999999996" viewBox="3.8499999046325684 -35.25 286.1300048828125 35.54999923706055" height="30.367062198147813" data-palette-color="#f7fff7"><path d="M3.85-34.85L23.55-34.85 23.55-31.15 8.4-31.15 8.4-19.4 20.7-19.4 20.7-15.7 8.4-15.7 8.4 0 3.85 0 3.85-34.85ZM29.05-34.85L33.6-34.85 33.6 0 29.05 0 29.05-34.85ZM45.9-34.85L45.9-3.7 58.1-3.7 58.1 0 41.35 0 41.35-34.85 45.9-34.85ZM93.44-34.6L98.29-34.6 98.29 0 93.74 0 93.74-25.8 82.24 0 79.04 0 67.49-25.85 67.49 0 62.94 0 62.94-34.6 67.84-34.6 80.64-6 93.44-34.6ZM151.19-24.75L145.74-24.75Q144.29-27.8 141.54-29.48 138.79-31.15 135.14-31.15L135.14-31.15Q131.49-31.15 128.56-29.48 125.64-27.8 123.96-24.68 122.29-21.55 122.29-17.45L122.29-17.45Q122.29-13.35 123.96-10.25 125.64-7.15 128.56-5.48 131.49-3.8 135.14-3.8L135.14-3.8Q140.24-3.8 143.54-6.85 146.84-9.9 147.39-15.1L147.39-15.1 133.49-15.1 133.49-18.8 152.24-18.8 152.24-15.3Q151.84-11 149.54-7.43 147.24-3.85 143.49-1.78 139.74 0.3 135.14 0.3L135.14 0.3Q130.29 0.3 126.29-1.98 122.29-4.25 119.96-8.3 117.64-12.35 117.64-17.45L117.64-17.45Q117.64-22.55 119.96-26.63 122.29-30.7 126.29-32.98 130.29-35.25 135.14-35.25L135.14-35.25Q140.69-35.25 144.96-32.5 149.24-29.75 151.19-24.75L151.19-24.75ZM181.64 0L178.84-7.75 163.64-7.75 160.84 0 156.04 0 168.64-34.65 173.89-34.65 186.44 0 181.64 0ZM164.94-11.45L177.54-11.45 171.24-29.05 164.94-11.45ZM222.43-34.6L227.28-34.6 227.28 0 222.73 0 222.73-25.8 211.23 0 208.03 0 196.48-25.85 196.48 0 191.93 0 191.93-34.6 196.83-34.6 209.63-6 222.43-34.6ZM253.73-31.15L239.53-31.15 239.53-19.5 252.23-19.5 252.23-15.75 239.53-15.75 239.53-3.75 253.73-3.75 253.73 0 234.98 0 234.98-34.9 253.73-34.9 253.73-31.15ZM271.48-34.85Q277.18-34.85 281.35-32.73 285.53-30.6 287.75-26.65 289.98-22.7 289.98-17.35L289.98-17.35Q289.98-12 287.75-8.08 285.53-4.15 281.35-2.08 277.18 0 271.48 0L271.48 0 260.63 0 260.63-34.85 271.48-34.85ZM271.48-3.75Q278.23-3.75 281.78-7.33 285.33-10.9 285.33-17.35L285.33-17.35Q285.33-23.85 281.75-27.5 278.18-31.15 271.48-31.15L271.48-31.15 265.18-31.15 265.18-3.75 271.48-3.75Z" opacity="1" transform="matrix(1,0,0,1,0,0)" fill="#f7fff7" class="undefined-text-0" data-fill-palette-color="primary" id="text-0"></path></svg></g></svg></g><g transform="matrix(1,0,0,1,0,37.535996773637756)"><svg viewBox="0 0 244.43135999999996 18.766844438455347" height="18.766844438455347" width="244.43135999999996"><g transform="matrix(1,0,0,1,0,0)"><svg width="244.43135999999996" viewBox="3.8499999046325684 -38.04999923706055 501.4499816894531 38.5" height="18.766844438455347" data-palette-color="#c325d4"><path d="M34.35-34.6L39.2-34.6 39.2 0 34.65 0 34.65-25.8 23.15 0 19.95 0 8.4-25.85 8.4 0 3.85 0 3.85-34.6 8.75-34.6 21.55-6 34.35-34.6ZM149.11 0.45Q145.26 0.45 142.14-1.3 139.01-3.05 137.24-6.28 135.46-9.5 135.46-13.75L135.46-13.75Q135.46-17.95 137.29-21.18 139.11-24.4 142.26-26.13 145.41-27.85 149.31-27.85L149.31-27.85Q153.21-27.85 156.36-26.13 159.51-24.4 161.34-21.2 163.16-18 163.16-13.75L163.16-13.75Q163.16-9.5 161.29-6.28 159.41-3.05 156.21-1.3 153.01 0.45 149.11 0.45L149.11 0.45ZM149.11-3.55Q151.56-3.55 153.71-4.7 155.86-5.85 157.19-8.15 158.51-10.45 158.51-13.75L158.51-13.75Q158.51-17.05 157.21-19.35 155.91-21.65 153.81-22.78 151.71-23.9 149.26-23.9L149.26-23.9Q146.76-23.9 144.69-22.78 142.61-21.65 141.36-19.35 140.11-17.05 140.11-13.75L140.11-13.75Q140.11-10.4 141.34-8.1 142.56-5.8 144.61-4.67 146.66-3.55 149.11-3.55L149.11-3.55ZM261.07-27.4L269.62-4.2 278.12-27.4 282.97-27.4 272.22 0 266.92 0 256.17-27.4 261.07-27.4ZM380.09-31.85Q378.79-31.85 377.89-32.75 376.99-33.65 376.99-34.95L376.99-34.95Q376.99-36.25 377.89-37.15 378.79-38.05 380.09-38.05L380.09-38.05Q381.34-38.05 382.21-37.15 383.09-36.25 383.09-34.95L383.09-34.95Q383.09-33.65 382.21-32.75 381.34-31.85 380.09-31.85L380.09-31.85ZM377.74-27.4L382.29-27.4 382.29 0 377.74 0 377.74-27.4ZM505.3-14.75Q505.3-13.45 505.15-12L505.15-12 483.25-12Q483.5-7.95 486.02-5.68 488.55-3.4 492.15-3.4L492.15-3.4Q495.1-3.4 497.07-4.78 499.05-6.15 499.85-8.45L499.85-8.45 504.75-8.45Q503.65-4.5 500.35-2.02 497.05 0.45 492.15 0.45L492.15 0.45Q488.25 0.45 485.17-1.3 482.1-3.05 480.35-6.28 478.6-9.5 478.6-13.75L478.6-13.75Q478.6-18 480.3-21.2 482-24.4 485.07-26.13 488.15-27.85 492.15-27.85L492.15-27.85Q496.05-27.85 499.05-26.15 502.05-24.45 503.67-21.48 505.3-18.5 505.3-14.75L505.3-14.75ZM500.6-15.7Q500.6-18.3 499.45-20.18 498.3-22.05 496.32-23.03 494.35-24 491.95-24L491.95-24Q488.5-24 486.07-21.8 483.65-19.6 483.3-15.7L483.3-15.7 500.6-15.7Z" opacity="1" transform="matrix(1,0,0,1,0,0)" fill="#c325d4" class="undefined-text-1" data-fill-palette-color="secondary" id="text-1"></path></svg></g></svg></g></svg></g></svg></g><g><svg viewBox="0 0 58.357894916334516 58.357894916334516" height="58.357894916334516" width="58.357894916334516"><g><svg xmlns="http://www.w3.org/2000/svg" xmlns:xlink="http://www.w3.org/1999/xlink" xmlns:a="http://ns.adobe.com/AdobeSVGViewerExtensions/3.0/" version="1.1" x="0" y="0" viewBox="0 0 100 100" overflow="visible" enable-background="new 0 0 100 100" xml:space="preserve" height="58.357894916334516" width="58.357894916334516" class="icon-icon-0" data-fill-palette-color="accent" id="icon-0"><path d="M100 0H66v20.253C66 21.651 64.689 23 63.291 23H7.595C6.197 23 5 21.651 5 20.253V0H0v100h5V79.747C5 78.349 6.197 77 7.595 77h55.696C64.689 77 66 78.349 66 79.747V100h34V0zM66 69.468C66 70.866 64.867 72 63.469 72H7.531C6.133 72 5 70.866 5 69.468V30.532C5 29.134 6.133 28 7.531 28h55.938C64.867 28 66 29.134 66 30.532V69.468zM92 81.141C92 81.615 91.615 82 91.142 82H70.858C70.385 82 70 81.615 70 81.141V67.859C70 67.385 70.385 67 70.858 67h20.283C91.615 67 92 67.385 92 67.859V81.141zM92 33.142C92 33.616 91.615 34 91.142 34H70.858C70.385 34 70 33.616 70 33.142V19.858C70 19.384 70.385 19 70.858 19h20.283C91.615 19 92 19.384 92 19.858V33.142z" fill="#f942de" data-fill-palette-color="accent"></path></svg></g></svg></g></svg></g></svg></g></svg></g><path d="M190.373 94.59L190.373 29.365 1.902 29.365 1.902 217.835 190.373 217.835 190.373 152.61 188.214 152.61 188.214 215.676 4.062 215.676 4.062 31.524 188.214 31.524 188.214 94.59Z" fill="#f7fff7" stroke="transparent" data-fill-palette-color="primary"></path></svg></g><defs></defs></svg><rect width="395.52" height="247.2" fill="none" stroke="none" visibility="hidden"></rect></g></svg></g></svg>